<svg width="26" height="20" viewBox="0 0 26 20" fill="none" xmlns="http://www.w3.org/2000/svg">
<g clip-path="url(#clip0_74_34)">
<path d="M16 0H8.5V9.16667H6V10.8333H8.5V13.3333H6V15H8.5V20H10.1667V15H17.6667V13.3333H10.1667V10.8333H16C17.3256 10.8318 18.5965 10.3045 19.5338 9.36716C20.4712 8.42981 20.9985 7.15894 21 5.83333V5C20.9985 3.67439 20.4712 2.40352 19.5338 1.46617C18.5965 0.528824 17.3256 0.00154384 16 0ZM19.3333 5.83333C19.3322 6.71705 18.9807 7.56426 18.3558 8.18914C17.7309 8.81402 16.8837 9.16556 16 9.16667H10.1667V1.66667H16C16.8837 1.66777 17.7309 2.01931 18.3558 2.6442C18.9807 3.26908 19.3322 4.11628 19.3333 5V5.83333Z" fill="#F5F98A"/>
</g>
<defs>
<clipPath id="clip0_74_34">
<rect width="26" height="20" fill="white"/>
</clipPath>
</defs>
</svg>
