<svg width="26" height="20" viewBox="0 0 26 20" fill="none" xmlns="http://www.w3.org/2000/svg">
<path d="M21.3282 4.99157C20.8981 4.01591 20.2778 3.13253 19.5026 2.39128C18.7247 1.64333 17.8078 1.04969 16.8017 0.642769C15.7552 0.215755 14.6448 0 13.5 0C12.3552 0 11.2448 0.215755 10.1983 0.640521C9.18602 1.0518 8.2789 1.64063 7.49745 2.38903C6.72267 3.1307 6.10252 4.01398 5.67177 4.98932C5.22621 6.00067 5 7.07495 5 8.18069C5 9.76739 5.38616 11.3473 6.14476 12.8711C6.75484 14.096 7.60712 15.2894 8.68105 16.4243C10.5159 18.3616 12.4398 19.546 12.9859 19.8629C13.1409 19.9529 13.3177 20.0003 13.4977 20C13.6759 20 13.8519 19.955 14.0095 19.8629C14.5556 19.546 16.4796 18.3616 18.3144 16.4243C19.3883 15.2916 20.2406 14.096 20.8507 12.8711C21.6138 11.3496 22 9.77188 22 8.18294C22 7.0772 21.7738 6.00292 21.3282 4.99157ZM13.5 18.2762C11.9942 17.3345 6.64516 13.606 6.64516 8.18294C6.64516 6.43218 7.35578 4.78705 8.64677 3.54647C9.94234 2.30363 11.6652 1.61816 13.5 1.61816C15.3348 1.61816 17.0577 2.30363 18.3532 3.54871C19.6442 4.78705 20.3548 6.43218 20.3548 8.18294C20.3548 13.606 15.0058 17.3345 13.5 18.2762ZM13.5 4.40499C11.279 4.40499 9.47849 6.17597 9.47849 8.36049C9.47849 10.545 11.279 12.316 13.5 12.316C15.721 12.316 17.5215 10.545 17.5215 8.36049C17.5215 6.17597 15.721 4.40499 13.5 4.40499ZM15.3097 10.1405C15.0723 10.3746 14.7902 10.5603 14.4797 10.6868C14.1691 10.8133 13.8362 10.8781 13.5 10.8776C12.8168 10.8776 12.1747 10.6147 11.6903 10.1405C11.4523 9.907 11.2635 9.62955 11.1349 9.32408C11.0063 9.0186 10.9403 8.69113 10.9409 8.36049C10.9409 7.6885 11.2082 7.05697 11.6903 6.58051C12.1747 6.10406 12.8168 5.84335 13.5 5.84335C14.1832 5.84335 14.8253 6.10406 15.3097 6.58051C15.7941 7.05697 16.0591 7.6885 16.0591 8.36049C16.0591 9.03247 15.7941 9.66401 15.3097 10.1405Z" fill="#F5F98A"/>
</svg>
