<svg width="22" height="21" viewBox="0 0 22 21" fill="none" xmlns="http://www.w3.org/2000/svg">
<path d="M16.873 20.9996C15.9553 20.9996 14.6662 20.6686 12.7359 19.5933C10.3885 18.2808 8.57288 17.0691 6.23822 14.7474C3.98725 12.5044 2.89185 11.0522 1.35876 8.27066C-0.373198 5.13003 -0.0779568 3.48378 0.252074 2.78019C0.645101 1.93925 1.22524 1.43628 1.9751 0.937065C2.40101 0.658832 2.85173 0.420323 3.32154 0.224565C3.36856 0.204409 3.41228 0.18519 3.4513 0.167846C3.68401 0.0633151 4.03661 -0.0946537 4.48323 0.0740963C4.78129 0.185659 5.04739 0.41394 5.46392 0.824096C6.31814 1.6641 7.48547 3.53488 7.91611 4.45363C8.20524 5.07285 8.39658 5.4816 8.39705 5.94003C8.39705 6.47675 8.12626 6.89066 7.79764 7.33738C7.73605 7.42128 7.67493 7.50144 7.6157 7.57925C7.25793 8.048 7.17942 8.18347 7.23113 8.42535C7.33597 8.91144 8.1178 10.3585 9.40266 11.6368C10.6875 12.915 12.097 13.6453 12.5864 13.7494C12.8393 13.8033 12.978 13.7218 13.4632 13.3524C13.5327 13.2994 13.6042 13.2446 13.6789 13.1897C14.1801 12.818 14.576 12.555 15.1016 12.555H15.1044C15.5618 12.555 15.9534 12.7528 16.6022 13.0791C17.4484 13.5047 19.3811 14.6536 20.2288 15.5063C20.6411 15.9207 20.871 16.185 20.9833 16.4818C21.1526 16.9285 20.9932 17.2786 20.8893 17.513C20.8719 17.5519 20.8526 17.5946 20.8324 17.6419C20.6345 18.1095 20.3939 18.558 20.1136 18.9816C19.6139 19.7269 19.1075 20.3039 18.2622 20.6963C17.8282 20.901 17.3531 21.0047 16.873 20.9996Z" fill="black"/>
</svg>
