<svg width="26" height="20" viewBox="0 0 26 20" fill="none" xmlns="http://www.w3.org/2000/svg">
<path d="M7.2934 0V1.86462H12.1949V0H13.8051V1.86462H18.7066V0H20.3167V1.86462H25.3124C25.6921 1.86462 25.9994 2.16627 26 2.53985V19.3415L25.9975 19.3673L25.9932 19.4166L25.9924 19.4174L25.9898 19.4416L25.9873 19.4541L25.9856 19.4591C25.9214 19.7697 25.6441 20 25.3124 20H0.686776C0.396302 19.9999 0.147853 19.8231 0.0474808 19.571L0.013566 19.4591L0.0101745 19.4433L0.00763085 19.4174L0.00678298 19.4166L0.00169574 19.3673L0 19.3415V2.53985L0.00339149 2.46641C0.0406016 2.12793 0.332337 1.86478 0.686776 1.86462H5.68329V0H7.2934ZM1.61011 3.45046V18.415H24.389V3.45046H20.3167V5.31508H18.7066V3.45046H13.8051V5.31508H12.1949V3.45046H7.2934V5.31508H5.68329V3.45046H1.61011ZM12.9996 7.40088C14.674 7.40088 16.0357 8.74385 16.0367 10.4065L16.0333 10.5559C16.0027 11.193 15.7655 11.8051 15.3575 12.302L15.0608 12.6634L15.4516 12.9246C16.36 13.5307 17.0257 14.4635 17.2788 15.5505L17.3237 15.77L17.4128 16.2708H16.1571L16.0884 15.926C15.8221 14.5865 14.6842 13.5522 13.2853 13.4279L13.276 13.4271H13.2658L13.0225 13.4162L13.0131 13.4154H13.003C11.5726 13.4154 10.3616 14.3641 9.982 15.6615L9.91671 15.9252L9.84888 16.2708H8.58895L8.67797 15.77C8.76945 15.2574 8.95355 14.7614 9.2257 14.3085C9.55777 13.756 10.0109 13.2844 10.5501 12.9246L10.9409 12.6642L10.6442 12.302C10.2765 11.8533 10.0353 11.3033 9.97691 10.6978L9.97522 10.6869V10.6794L9.97437 10.6769L9.9625 10.4307V10.4081C9.9625 8.74484 11.3247 7.40105 12.9996 7.40088ZM12.9826 8.63617C12.0024 8.6454 11.2089 9.43665 11.2089 10.4081V10.4182L11.2097 10.429L11.2165 10.5667V10.5776L11.2182 10.5893C11.3099 11.4763 12.0644 12.1698 12.9826 12.1784H12.9953L13.0072 12.1776L13.1708 12.1701H13.1844L13.198 12.1684C14.0364 12.0769 14.7018 11.41 14.7818 10.5767L14.7903 10.4081C14.7903 9.49785 14.0927 8.74391 13.198 8.64619L13.1844 8.64452H13.1708L13.0072 8.63701L12.9953 8.63617H12.9826Z" fill="#F5F98A"/>
</svg>
