<svg aria-hidden="true" xmlns="http://www.w3.org/2000/svg" xmlns:xlink="http://www.w3.org/1999/xlink"><symbol viewBox="0 0 26 20" fill="none" id="icon-contacts" xmlns="http://www.w3.org/2000/svg">
<path d="M7.2934 0V1.86462H12.1949V0H13.8051V1.86462H18.7066V0H20.3167V1.86462H25.3124C25.6921 1.86462 25.9994 2.16627 26 2.53985V19.3415L25.9975 19.3673L25.9932 19.4166L25.9924 19.4174L25.9898 19.4416L25.9873 19.4541L25.9856 19.4591C25.9214 19.7697 25.6441 20 25.3124 20H0.686776C0.396302 19.9999 0.147853 19.8231 0.0474808 19.571L0.013566 19.4591L0.0101745 19.4433L0.00763085 19.4174L0.00678298 19.4166L0.00169574 19.3673L0 19.3415V2.53985L0.00339149 2.46641C0.0406016 2.12793 0.332337 1.86478 0.686776 1.86462H5.68329V0H7.2934ZM1.61011 3.45046V18.415H24.389V3.45046H20.3167V5.31508H18.7066V3.45046H13.8051V5.31508H12.1949V3.45046H7.2934V5.31508H5.68329V3.45046H1.61011ZM12.9996 7.40088C14.674 7.40088 16.0357 8.74385 16.0367 10.4065L16.0333 10.5559C16.0027 11.193 15.7655 11.8051 15.3575 12.302L15.0608 12.6634L15.4516 12.9246C16.36 13.5307 17.0257 14.4635 17.2788 15.5505L17.3237 15.77L17.4128 16.2708H16.1571L16.0884 15.926C15.8221 14.5865 14.6842 13.5522 13.2853 13.4279L13.276 13.4271H13.2658L13.0225 13.4162L13.0131 13.4154H13.003C11.5726 13.4154 10.3616 14.3641 9.982 15.6615L9.91671 15.9252L9.84888 16.2708H8.58895L8.67797 15.77C8.76945 15.2574 8.95355 14.7614 9.2257 14.3085C9.55777 13.756 10.0109 13.2844 10.5501 12.9246L10.9409 12.6642L10.6442 12.302C10.2765 11.8533 10.0353 11.3033 9.97691 10.6978L9.97522 10.6869V10.6794L9.97437 10.6769L9.9625 10.4307V10.4081C9.9625 8.74484 11.3247 7.40105 12.9996 7.40088ZM12.9826 8.63617C12.0024 8.6454 11.2089 9.43665 11.2089 10.4081V10.4182L11.2097 10.429L11.2165 10.5667V10.5776L11.2182 10.5893C11.3099 11.4763 12.0644 12.1698 12.9826 12.1784H12.9953L13.0072 12.1776L13.1708 12.1701H13.1844L13.198 12.1684C14.0364 12.0769 14.7018 11.41 14.7818 10.5767L14.7903 10.4081C14.7903 9.49785 14.0927 8.74391 13.198 8.64619L13.1844 8.64452H13.1708L13.0072 8.63701L12.9953 8.63617H12.9826Z" fill="currentColor"/>
</symbol><symbol viewBox="0 0 26 22" fill="none" id="icon-img" xmlns="http://www.w3.org/2000/svg">
<path d="M15.8571 16.5714L10.1429 10.8571L3 18V0.857147H23V16.5714M13 13.7143L17.2857 9.42858L23 15.1429V20.8571H3V16.5714M10.8571 5.85715C10.8571 7.04061 9.89775 8 8.71429 8C7.53082 8 6.57143 7.04061 6.57143 5.85715C6.57143 4.67368 7.53082 3.71429 8.71429 3.71429C9.89775 3.71429 10.8571 4.67368 10.8571 5.85715Z" stroke="currentColor" stroke-width="1.71429" stroke-linecap="round" stroke-linejoin="round"/>
</symbol><symbol viewBox="0 0 26 20" fill="none" id="icon-location" xmlns="http://www.w3.org/2000/svg">
<path d="M21.3282 4.99157C20.8981 4.01591 20.2778 3.13253 19.5026 2.39128C18.7247 1.64333 17.8078 1.04969 16.8017 0.642769C15.7552 0.215755 14.6448 0 13.5 0C12.3552 0 11.2448 0.215755 10.1983 0.640521C9.18602 1.0518 8.2789 1.64063 7.49745 2.38903C6.72267 3.1307 6.10252 4.01398 5.67177 4.98932C5.22621 6.00067 5 7.07495 5 8.18069C5 9.76739 5.38616 11.3473 6.14476 12.8711C6.75484 14.096 7.60712 15.2894 8.68105 16.4243C10.5159 18.3616 12.4398 19.546 12.9859 19.8629C13.1409 19.9529 13.3177 20.0003 13.4977 20C13.6759 20 13.8519 19.955 14.0095 19.8629C14.5556 19.546 16.4796 18.3616 18.3144 16.4243C19.3883 15.2916 20.2406 14.096 20.8507 12.8711C21.6138 11.3496 22 9.77188 22 8.18294C22 7.0772 21.7738 6.00292 21.3282 4.99157ZM13.5 18.2762C11.9942 17.3345 6.64516 13.606 6.64516 8.18294C6.64516 6.43218 7.35578 4.78705 8.64677 3.54647C9.94234 2.30363 11.6652 1.61816 13.5 1.61816C15.3348 1.61816 17.0577 2.30363 18.3532 3.54871C19.6442 4.78705 20.3548 6.43218 20.3548 8.18294C20.3548 13.606 15.0058 17.3345 13.5 18.2762ZM13.5 4.40499C11.279 4.40499 9.47849 6.17597 9.47849 8.36049C9.47849 10.545 11.279 12.316 13.5 12.316C15.721 12.316 17.5215 10.545 17.5215 8.36049C17.5215 6.17597 15.721 4.40499 13.5 4.40499ZM15.3097 10.1405C15.0723 10.3746 14.7902 10.5603 14.4797 10.6868C14.1691 10.8133 13.8362 10.8781 13.5 10.8776C12.8168 10.8776 12.1747 10.6147 11.6903 10.1405C11.4523 9.907 11.2635 9.62955 11.1349 9.32408C11.0063 9.0186 10.9403 8.69113 10.9409 8.36049C10.9409 7.6885 11.2082 7.05697 11.6903 6.58051C12.1747 6.10406 12.8168 5.84335 13.5 5.84335C14.1832 5.84335 14.8253 6.10406 15.3097 6.58051C15.7941 7.05697 16.0591 7.6885 16.0591 8.36049C16.0591 9.03247 15.7941 9.66401 15.3097 10.1405Z" fill="currentColor"/>
</symbol><symbol viewBox="0 0 11 17" fill="none" id="icon-prev" xmlns="http://www.w3.org/2000/svg">
<path d="M4.55696 16.7089L0 8.35443L4.55696 0L10.6329 0L5.80948 8.35443L10.6329 16.7089H4.55696Z" fill="currentColor"/>
</symbol><symbol viewBox="0 0 26 20" fill="none" id="icon-r" xmlns="http://www.w3.org/2000/svg">
<g clip-path="url(#eclip0_74_34)">
<path d="M16 0H8.5V9.16667H6V10.8333H8.5V13.3333H6V15H8.5V20H10.1667V15H17.6667V13.3333H10.1667V10.8333H16C17.3256 10.8318 18.5965 10.3045 19.5338 9.36716C20.4712 8.42981 20.9985 7.15894 21 5.83333V5C20.9985 3.67439 20.4712 2.40352 19.5338 1.46617C18.5965 0.528824 17.3256 0.00154384 16 0ZM19.3333 5.83333C19.3322 6.71705 18.9807 7.56426 18.3558 8.18914C17.7309 8.81402 16.8837 9.16556 16 9.16667H10.1667V1.66667H16C16.8837 1.66777 17.7309 2.01931 18.3558 2.6442C18.9807 3.26908 19.3322 4.11628 19.3333 5V5.83333Z" fill="currentColor"/>
</g>
<defs>
<clipPath id="eclip0_74_34">
<rect width="26" height="20" fill="currentColor"/>
</clipPath>
</defs>
</symbol><symbol viewBox="0 0 22 21" fill="none" id="icon-tel" xmlns="http://www.w3.org/2000/svg">
<path d="M16.873 20.9996C15.9553 20.9996 14.6662 20.6686 12.7359 19.5933C10.3885 18.2808 8.57288 17.0691 6.23822 14.7474C3.98725 12.5044 2.89185 11.0522 1.35876 8.27066C-0.373198 5.13003 -0.0779568 3.48378 0.252074 2.78019C0.645101 1.93925 1.22524 1.43628 1.9751 0.937065C2.40101 0.658832 2.85173 0.420323 3.32154 0.224565C3.36856 0.204409 3.41228 0.18519 3.4513 0.167846C3.68401 0.0633151 4.03661 -0.0946537 4.48323 0.0740963C4.78129 0.185659 5.04739 0.41394 5.46392 0.824096C6.31814 1.6641 7.48547 3.53488 7.91611 4.45363C8.20524 5.07285 8.39658 5.4816 8.39705 5.94003C8.39705 6.47675 8.12626 6.89066 7.79764 7.33738C7.73605 7.42128 7.67493 7.50144 7.6157 7.57925C7.25793 8.048 7.17942 8.18347 7.23113 8.42535C7.33597 8.91144 8.1178 10.3585 9.40266 11.6368C10.6875 12.915 12.097 13.6453 12.5864 13.7494C12.8393 13.8033 12.978 13.7218 13.4632 13.3524C13.5327 13.2994 13.6042 13.2446 13.6789 13.1897C14.1801 12.818 14.576 12.555 15.1016 12.555H15.1044C15.5618 12.555 15.9534 12.7528 16.6022 13.0791C17.4484 13.5047 19.3811 14.6536 20.2288 15.5063C20.6411 15.9207 20.871 16.185 20.9833 16.4818C21.1526 16.9285 20.9932 17.2786 20.8893 17.513C20.8719 17.5519 20.8526 17.5946 20.8324 17.6419C20.6345 18.1095 20.3939 18.558 20.1136 18.9816C19.6139 19.7269 19.1075 20.3039 18.2622 20.6963C17.8282 20.901 17.3531 21.0047 16.873 20.9996Z" fill="currentColor"/>
</symbol></svg>